HIERARCHY
ROOT Hips
{
	OFFSET 0.00 0.00 0.00
	CHANNELS 6 Xposition Yposition Zposition Yrotation Xrotation Zrotation
	JOINT Spine
	{
		OFFSET	0.0000	9.2263	1.5771
		CHANNELS 3 Xrotation Yrotation Zrotation
		JOINT Spine1
		{
			OFFSET	0.0000	16.2540	-0.1656
			CHANNELS 3 Xrotation Yrotation Zrotation
			JOINT Spine2
			{
				OFFSET	0.0000	13.6396	-1.2923
				CHANNELS 3 Xrotation Yrotation Zrotation
				JOINT Neck
				{
					OFFSET	0.0000	13.8774	-4.3542
					CHANNELS 3 Xrotation Yrotation Zrotation
					JOINT Neck1
					{
						OFFSET	0.0000	4.3400	0.9269
						CHANNELS 3 Xrotation Yrotation Zrotation
						JOINT Head
						{
							OFFSET	0.0000	4.0266	0.8585
							CHANNELS 3 Xrotation Yrotation Zrotation
							End Site
							{
								OFFSET 0.0000 23.0297 0.1231
							}
						}
					}
				}
				JOINT LeftShoulder
				{
					OFFSET	6.1442	10.1870	-3.7932
					CHANNELS 3 Zrotation Xrotation Yrotation
					JOINT LeftArm
					{
						OFFSET	12.3191	-1.1130	-1.7935
						CHANNELS 3 Zrotation Xrotation Yrotation
						JOINT LeftForeArm
						{
							OFFSET	27.6870	0.0000	0.0000
							CHANNELS 3 Xrotation Zrotation Yrotation
							JOINT LeftHand
							{
								OFFSET	27.8738	0.0000	0.0000
								CHANNELS 3 Zrotation Yrotation Xrotation
								JOINT LeftHandThumb1
								{
									OFFSET	2.3785	-1.0029	2.6209
									CHANNELS 3 Zrotation Xrotation Yrotation
									JOINT LeftHandThumb2
									{
										OFFSET	3.3624	-1.0029	2.8398
										CHANNELS 3 Zrotation Xrotation Yrotation
										JOINT LeftHandThumb3
										{
											OFFSET	4.5018	-1.3445	2.1783
											CHANNELS 3 Zrotation Xrotation Yrotation
											End Site
											{
												OFFSET 2.6000 -1.0000 1.0000
											}
										}
									}
								}
								JOINT LeftHandMiddle1
								{
									OFFSET	10.4639	0.6148	0.4298
									CHANNELS 3 Zrotation Xrotation Yrotation
									JOINT LeftHandMiddle2
									{
										OFFSET	5.7921	0.0000	0.0000
										CHANNELS 3 Zrotation Xrotation Yrotation
										JOINT LeftHandMiddle3
										{
											OFFSET	3.7132	0.0000	0.0000
											CHANNELS 3 Zrotation Xrotation Yrotation
											End Site
											{
												OFFSET 2.3000 0.0000 0.0000
											}
										}
									}
								}
								JOINT LeftHandIndex1
								{
									OFFSET	10.3945	0.6148	2.7055
									CHANNELS 3 Zrotation Xrotation Yrotation
									JOINT LeftHandIndex2
									{
										OFFSET	5.5493	0.0000	0.0000
										CHANNELS 3 Zrotation Xrotation Yrotation
										JOINT LeftHandIndex3
										{
											OFFSET	3.3911	0.0000	0.0000
											CHANNELS 3 Zrotation Xrotation Yrotation
											End Site
											{
												OFFSET 2.5000 0.0000 0.0000
											}
										}
									}
								}
								JOINT LeftHandRing1
								{
									OFFSET	10.3252	0.3211	-1.8755
									CHANNELS 3 Zrotation Xrotation Yrotation
									JOINT LeftHandRing2
									{
										OFFSET	5.4452	0.0000	0.0000
										CHANNELS 3 Zrotation Xrotation Yrotation
										JOINT LeftHandRing3
										{
											OFFSET	3.7132	0.0000	0.0000
											CHANNELS 3 Zrotation Xrotation Yrotation
											End Site
											{
												OFFSET 2.0000 0.0000 0.0000
											}
										}
									}
								}
								JOINT LeftHandPinky1
								{
									OFFSET	10.0130	-0.0783	-3.9671
									CHANNELS 3 Zrotation Xrotation Yrotation
									JOINT LeftHandPinky2
									{
										OFFSET	3.6763	0.0000	0.0000
										CHANNELS 3 Zrotation Xrotation Yrotation
										JOINT LeftHandPinky3
										{
											OFFSET	2.8113	0.0000	0.0000
											CHANNELS 3 Zrotation Xrotation Yrotation
											End Site
											{
												OFFSET 2.9000 0.0000 0.0000
											}
										}
									}
								}
							}
						}
					}
				}
				JOINT RightShoulder
				{
					OFFSET	-6.1402	10.1870	-3.7932
					CHANNELS 3 Zrotation Xrotation Yrotation
					JOINT RightArm
					{
						OFFSET	-12.3231	-1.1130	-1.7935
						CHANNELS 3 Zrotation Xrotation Yrotation
						JOINT RightForeArm
						{
							OFFSET	-27.6870	0.0000	0.0000
							CHANNELS 3 Xrotation Zrotation Yrotation
							JOINT RightHand
							{
								OFFSET	-27.8738	0.0000	0.0000
								CHANNELS 3 Zrotation Yrotation Xrotation
								JOINT RightHandThumb1
								{
									OFFSET	-2.5178	-0.9367	2.5137
									CHANNELS 3 Zrotation Xrotation Yrotation
									JOINT RightHandThumb2
									{
										OFFSET	-3.2638	-1.0870	2.9669
										CHANNELS 3 Zrotation Xrotation Yrotation
										JOINT RightHandThumb3
										{
											OFFSET	-4.4165	-1.3703	2.1350
											CHANNELS 3 Zrotation Xrotation Yrotation
											End Site
											{
												OFFSET -2.6000 -1.0000 1.0000
											}
										}
									}
								}
								JOINT RightHandIndex1
								{
									OFFSET	-10.4665	0.4896	2.7120
									CHANNELS 3 Zrotation Xrotation Yrotation
									JOINT RightHandIndex2
									{
										OFFSET	-5.3768	0.0000	0.0000
										CHANNELS 3 Zrotation Xrotation Yrotation
										JOINT RightHandIndex3
										{
											OFFSET	-3.3855	0.0000	0.0000
											CHANNELS 3 Zrotation Xrotation Yrotation
											End Site
											{
												OFFSET -2.6000 0.0000 0.0000
											}
										}
									}
								}
								JOINT RightHandMiddle1
								{
									OFFSET	-10.7596	0.4896	0.4278
									CHANNELS 3 Zrotation Xrotation Yrotation
									JOINT RightHandMiddle2
									{
										OFFSET	-5.6168	0.0000	0.0000
										CHANNELS 3 Zrotation Xrotation Yrotation
										JOINT RightHandMiddle3
										{
											OFFSET	-3.7364	0.0000	0.0000
											CHANNELS 3 Zrotation Xrotation Yrotation
											End Site
											{
												OFFSET -2.3000 0.0000 0.0000
											}
										}
									}
								}
								JOINT RightHandRing1
								{
									OFFSET	-10.4702	0.3879	-1.9363
									CHANNELS 3 Zrotation Xrotation Yrotation
									JOINT RightHandRing2
									{
										OFFSET	-5.4013	0.0000	0.0000
										CHANNELS 3 Zrotation Xrotation Yrotation
										JOINT RightHandRing3
										{
											OFFSET	-3.3916	0.0000	0.0000
											CHANNELS 3 Zrotation Xrotation Yrotation
											End Site
											{
												OFFSET -2.2000 0.0000 0.0000
											}
										}
									}
								}
								JOINT RightHandPinky1
								{
									OFFSET	-9.9715	-0.1191	-3.9540
									CHANNELS 3 Zrotation Xrotation Yrotation
									JOINT RightHandPinky2
									{
										OFFSET	-3.6528	0.0000	0.0000
										CHANNELS 3 Zrotation Xrotation Yrotation
										JOINT RightHandPinky3
										{
											OFFSET	-2.7820	0.0000	0.0000
											CHANNELS 3 Zrotation Xrotation Yrotation
											End Site
											{
												OFFSET -2.9000 0.0000 0.0000
											}
										}
									}
								}
							}
						}
					}
				}
			}
		}
	}
	JOINT LeftUpLeg
	{
		OFFSET	9.6338	-3.2733	0.0000
		CHANNELS 3 Xrotation Yrotation Zrotation
		JOINT LeftLeg
		{
			OFFSET	0.0000	-41.7300	-1.7300
			CHANNELS 3 Xrotation Yrotation Zrotation
			JOINT LeftFoot
			{
				OFFSET	0.0126	-39.1900	-0.8477
				CHANNELS 3 Xrotation Yrotation Zrotation
				JOINT LeftToeBase
				{
					OFFSET	-0.1833	-12.1931	8.2823
					CHANNELS 3 Xrotation Yrotation Zrotation
					End Site
					{
						OFFSET 0.0000 0.0000 10.1681
					}
				}
			}
		}
	}
	JOINT RightUpLeg
	{
		OFFSET	-9.6338	-3.2733	0.0000
		CHANNELS 3 Xrotation Yrotation Zrotation
		JOINT RightLeg
		{
			OFFSET	0.0000	-41.7300	-1.7300
			CHANNELS 3 Xrotation Yrotation Zrotation
			JOINT RightFoot
			{
				OFFSET	0.0126	-39.1900	-0.8477
				CHANNELS 3 Xrotation Yrotation Zrotation
				JOINT RightToeBase
				{
					OFFSET	-0.1833	-12.1931	8.2823
					CHANNELS 3 Xrotation Yrotation Zrotation
					End Site
					{
						OFFSET 0.0032 0.0000 10.1681
					}
				}
			}
		}
	}
}
MOTION
Frames: 4
Frame Time: 0.0333333
0.0252 95.5785 0.0119 -5.2371 -3.7379 -3.1192 3.3049 1.5332 2.4342 1.1519 0.3395 1.5528 1.1260 0.3615 1.5559 5.6263 -0.0790 0.4547 -0.0000 0.0000 -0.0000 -7.5633 1.3757 -0.0806 -11.7848 4.6941 -16.8493 -69.8727 20.0976 -3.2887 0.0000 0.0000 -1.4594 -8.5114 -3.9529 -26.8141 -1.2565 4.7807 8.5711 14.3688 8.6055 13.9504 13.8388 -15.9844 1.2862 -12.5293 0.0006 -1.3303 -17.4911 0.0007 -0.0045 -18.5032 0.0008 -0.0048 -4.0786 0.4327 -4.0647 -17.4612 0.0007 -0.0045 -8.0795 0.0002 -0.0021 -18.0283 0.0010 -0.8959 -21.0119 0.0010 -0.0054 -17.9526 0.0007 -0.0046 -24.1393 -0.0440 0.5563 -17.4915 0.0007 -0.0045 -16.5876 0.0006 -0.0043 14.2263 5.0180 14.5673 61.3313 30.2135 2.5703 0.0000 -0.0000 6.6937 9.6608 0.3534 -15.3783 1.2590 4.7830 -8.5731 -12.8131 8.9397 -16.2605 -17.2620 -16.8496 -2.6262 4.0788 0.4327 4.0637 17.4612 0.0004 0.0024 8.0795 0.0001 0.0011 12.5292 0.0003 1.3283 17.4911 0.0004 0.0024 18.5032 0.0004 0.0025 18.0281 0.0005 0.8932 21.0119 0.0005 0.0028 17.9526 0.0004 0.0024 24.1389 -0.0449 -0.5596 17.4915 0.0004 0.0024 16.5876 0.0003 0.0023 -12.5696 14.4026 10.8163 16.5916 2.1261 4.1422 -1.2955 0.5948 -7.4967 -4.9285 0.0000 -0.0000 0.4282 -10.4059 3.2013 8.9217 -9.8497 -2.9865 -5.0711 -1.6296 3.1270 -7.2829 0.0000 -0.0000 
0.2283 95.5785 -0.0764 -5.9223 -3.1895 -3.0535 3.3656 1.7487 2.4993 1.1796 0.4046 1.5736 1.1536 0.4266 1.5769 5.4297 -0.0788 0.3734 -0.0000 0.0000 -0.0000 -8.0932 1.5001 -0.3877 -11.6019 4.7524 -16.9185 -68.7628 21.0443 -4.4753 -0.0000 -0.0000 -1.5947 -8.6280 -3.5927 -26.6898 -1.2565 4.7807 8.5711 14.2145 8.8759 14.0736 13.7531 -15.9716 1.1928 -12.9359 0.0006 -1.2729 -17.4413 0.0007 -0.0045 -18.4531 0.0008 -0.0048 -4.7046 0.5069 -3.9015 -17.4676 0.0007 -0.0045 -8.0860 0.0001 -0.0021 -18.3678 0.0010 -0.9216 -21.0374 0.0010 -0.0054 -17.9782 0.0007 -0.0046 -24.3694 -0.0468 0.4220 -17.5233 0.0007 -0.0045 -16.6194 0.0006 -0.0043 14.2170 4.9835 14.5591 60.1874 29.4468 2.4605 -0.0000 0.0000 8.9133 7.3717 -0.3010 -15.1540 1.2590 4.7830 -8.5731 -13.0606 8.8930 -15.4785 -17.3461 -16.8538 -2.6127 4.6453 0.3941 4.1332 17.5262 0.0004 0.0024 8.1440 0.0001 0.0011 13.0568 0.0003 1.4241 17.5369 0.0004 0.0024 18.5495 0.0004 0.0025 18.5154 0.0005 1.0570 21.0606 0.0005 0.0028 18.0013 0.0004 0.0024 24.6927 -0.1059 -0.2748 17.3372 0.0004 0.0024 16.4315 0.0003 0.0022 -13.2517 14.8589 11.0593 16.8514 2.2341 3.5961 -1.4541 0.6223 -7.1006 -4.9285 0.0000 -0.0000 -0.5744 -10.3896 2.8891 9.4005 -9.9138 -2.9066 -5.1235 -0.9340 3.2274 -7.2867 0.0000 -0.0000 
0.5237 95.6130 -0.1931 -6.8083 -2.5057 -2.9760 3.5007 1.8694 2.5838 1.2342 0.4272 1.6008 1.2081 0.4492 1.6044 5.2219 -0.0271 0.3429 -0.0000 0.0000 -0.0000 -8.6578 1.8737 -0.7204 -11.2429 4.7793 -16.9261 -67.6807 21.8981 -5.6789 -0.0000 0.0000 -1.6786 -8.3842 -3.1450 -27.0456 -1.2566 4.7807 8.5711 13.9913 9.1806 14.4290 13.9478 -16.0956 0.8960 -13.6590 0.0006 -1.1728 -17.3990 0.0007 -0.0045 -18.4106 0.0008 -0.0047 -5.7359 0.6384 -3.6132 -17.4682 0.0007 -0.0045 -8.0865 0.0002 -0.0021 -18.9675 0.0011 -0.9296 -21.0889 0.0010 -0.0054 -18.0301 0.0007 -0.0046 -24.7908 -0.0568 0.1961 -17.6074 0.0007 -0.0045 -16.7034 0.0006 -0.0043 14.1284 4.9358 14.5412 58.9304 28.4221 2.1787 -0.0000 0.0000 11.8020 4.3558 -0.7269 -14.9135 1.2590 4.7830 -8.5731 -13.3078 8.8355 -14.5998 -17.4428 -16.8584 -2.5977 5.6204 0.3557 4.2313 17.5473 0.0004 0.0024 8.1664 0.0001 0.0011 13.8846 0.0003 1.5730 17.5893 0.0004 0.0024 18.6028 0.0004 0.0025 19.2329 0.0006 1.3397 21.1712 0.0005 0.0028 18.1126 0.0004 0.0025 25.5279 -0.2064 0.1947 17.2829 0.0004 0.0024 16.3734 0.0003 0.0022 -13.8668 15.2509 11.1554 16.7939 2.6771 3.0925 -1.4619 0.6209 -6.6974 -4.9285 0.0000 -0.0000 -1.4930 -10.2807 2.5739 9.2716 -9.8760 -2.8585 -4.7933 -0.2001 3.3232 -7.2972 0.0000 -0.0000 
0.9139 95.6564 -0.3634 -7.9170 -1.6214 -2.8801 3.6977 1.8577 2.6680 1.3129 0.3943 1.6324 1.2868 0.4162 1.6369 5.0171 0.0857 0.4016 -0.0000 0.0000 -0.0000 -9.2671 2.5576 -1.0653 -10.6882 4.7703 -16.8530 -66.6403 22.6519 -6.8232 -0.0000 0.0000 -1.8359 -7.5123 -2.4577 -27.5925 -1.2565 4.7807 8.5711 13.8404 9.5368 14.8624 14.1426 -16.1346 0.7029 -14.2376 0.0007 -1.1002 -17.3861 0.0007 -0.0045 -18.3975 0.0008 -0.0047 -6.6382 0.7558 -3.3561 -17.4563 0.0007 -0.0045 -8.0747 0.0001 -0.0021 -19.4999 0.0012 -0.8836 -21.1512 0.0010 -0.0054 -18.0923 0.0007 -0.0047 -25.0810 -0.0683 -0.0041 -17.6816 0.0007 -0.0046 -16.7778 0.0006 -0.0043 13.9962 4.8852 14.5690 57.5261 27.2216 1.8026 0.0000 -0.0000 15.0343 0.7717 -0.9134 -14.8997 1.2590 4.7830 -8.5731 -13.4021 8.7888 -13.9189 -17.5232 -16.8645 -2.5781 6.6062 0.3187 4.3182 17.5778 0.0004 0.0024 8.1983 0.0001 0.0011 14.5608 0.0003 1.6334 17.6855 0.0004 0.0024 18.6994 0.0004 0.0025 19.8947 0.0006 1.6078 21.3928 0.0005 0.0029 18.3349 0.0004 0.0025 26.3355 -0.3157 0.7048 17.3632 0.0004 0.0024 16.4489 0.0003 0.0022 -14.6027 15.5293 11.1256 16.6475 3.5041 2.6210 -1.4164 0.5960 -6.2858 -4.9285 0.0000 -0.0000 -2.6697 -9.9669 2.1908 9.0822 -9.0954 -2.7592 -4.3158 -0.1829 3.3511 -7.3124 0.0000 -0.0000 
